<?xml version="1.0" encoding="utf-8"?>
<!-- Generator: Adobe Illustrator 24.3.0, SVG Export Plug-In . SVG Version: 6.00 Build 0)  -->
<svg version="1.1" xmlns="http://www.w3.org/2000/svg" xmlns:xlink="http://www.w3.org/1999/xlink" x="0px" y="0px"
	 viewBox="0 0 1596.6 164.1" style="enable-background:new 0 0 1596.6 164.1;" xml:space="preserve">
<style type="text/css">
	.st0{fill:#FFFFFF;}
</style>
<g id="Ebene_1">
</g>
<g id="BG">
</g>
<g id="ELEMENTS">
	<g>
		<g>
			<path class="st0" d="M24.6,59.7v8.7h80.9v-8.7H24.6z M44.1,23.5c-10.8,0-19.5,8.8-19.5,19.5v6.6h80.9v-6.6
				c0-7.5,2.8-14.3,7.4-19.5H44.1z M135,23.5c-10.8,0-19.5,8.8-19.5,19.5v6.6h39.1v-6.6C154.6,32.3,145.8,23.5,135,23.5z M24.6,59.7
				v8.7h80.9v-8.7H24.6z M115.5,59.7v8.7h39.1v-8.7H115.5z M115.5,78.4v58c0,2,1.7,3.7,3.7,3.7h31.6c2.1,0,3.8-1.7,3.8-3.8V78.4
				H115.5z M105.5,78.4H78.3v19.4h-18c-4.3,0-7.9-3.5-7.9-7.8V78.4H24.6v58c0,2,1.7,3.7,3.7,3.7H106c-0.3-1.2-0.5-2.4-0.5-3.7V78.4z
				 M24.6,59.7v8.7h80.9v-8.7H24.6z M115.5,59.7v8.7h39.1v-8.7H115.5z M115.5,78.4v58c0,2,1.7,3.7,3.7,3.7h31.6
				c2.1,0,3.8-1.7,3.8-3.8V78.4H115.5z M105.5,78.4H78.3v19.4h-18c-4.3,0-7.9-3.5-7.9-7.8V78.4H24.6v58c0,2,1.7,3.7,3.7,3.7H106
				c-0.3-1.2-0.5-2.4-0.5-3.7V78.4z M135,23.5c-10.8,0-19.5,8.8-19.5,19.5v6.6h39.1v-6.6C154.6,32.3,145.8,23.5,135,23.5z
				 M44.1,23.5c-10.8,0-19.5,8.8-19.5,19.5v6.6h80.9v-6.6c0-7.5,2.8-14.3,7.4-19.5H44.1z M24.6,59.7v8.7h80.9v-8.7H24.6z M44.1,23.5
				c-10.8,0-19.5,8.8-19.5,19.5v6.6h80.9v-6.6c0-7.5,2.8-14.3,7.4-19.5H44.1z M135,23.5c-10.8,0-19.5,8.8-19.5,19.5v6.6h39.1v-6.6
				C154.6,32.3,145.8,23.5,135,23.5z M115.5,59.7v8.7h39.1v-8.7H115.5z M115.5,78.4v58c0,2,1.7,3.7,3.7,3.7h31.6
				c2.1,0,3.8-1.7,3.8-3.8V78.4H115.5z M105.5,78.4H78.3v19.4h-18c-4.3,0-7.9-3.5-7.9-7.8V78.4H24.6v58c0,2,1.7,3.7,3.7,3.7H106
				c-0.3-1.2-0.5-2.4-0.5-3.7V78.4z M115.5,59.7v8.7h39.1v-8.7H115.5z M115.5,78.4v58c0,2,1.7,3.7,3.7,3.7h31.6
				c2.1,0,3.8-1.7,3.8-3.8V78.4H115.5z M105.5,78.4H78.3v19.4h-18c-4.3,0-7.9-3.5-7.9-7.8V78.4H24.6v58c0,2,1.7,3.7,3.7,3.7H106
				c-0.3-1.2-0.5-2.4-0.5-3.7V78.4z M135,23.5c-10.8,0-19.5,8.8-19.5,19.5v6.6h39.1v-6.6C154.6,32.3,145.8,23.5,135,23.5z
				 M44.1,23.5c-10.8,0-19.5,8.8-19.5,19.5v6.6h80.9v-6.6c0-7.5,2.8-14.3,7.4-19.5H44.1z M24.6,59.7v8.7h80.9v-8.7H24.6z M24.6,59.7
				v8.7h80.9v-8.7H24.6z M44.1,23.5c-10.8,0-19.5,8.8-19.5,19.5v6.6h80.9v-6.6c0-7.5,2.8-14.3,7.4-19.5H44.1z M135,23.5
				c-10.8,0-19.5,8.8-19.5,19.5v6.6h39.1v-6.6C154.6,32.3,145.8,23.5,135,23.5z M115.5,59.7v8.7h39.1v-8.7H115.5z M115.5,78.4v58
				c0,2,1.7,3.7,3.7,3.7h31.6c2.1,0,3.8-1.7,3.8-3.8V78.4H115.5z M105.5,78.4H78.3v19.4h-18c-4.3,0-7.9-3.5-7.9-7.8V78.4H24.6v58
				c0,2,1.7,3.7,3.7,3.7H106c-0.3-1.2-0.5-2.4-0.5-3.7V78.4z M115.5,59.7v8.7h39.1v-8.7H115.5z M115.5,78.4v58c0,2,1.7,3.7,3.7,3.7
				h31.6c2.1,0,3.8-1.7,3.8-3.8V78.4H115.5z M105.5,78.4H78.3v19.4h-18c-4.3,0-7.9-3.5-7.9-7.8V78.4H24.6v58c0,2,1.7,3.7,3.7,3.7
				H106c-0.3-1.2-0.5-2.4-0.5-3.7V78.4z M135,23.5c-10.8,0-19.5,8.8-19.5,19.5v6.6h39.1v-6.6C154.6,32.3,145.8,23.5,135,23.5z
				 M44.1,23.5c-10.8,0-19.5,8.8-19.5,19.5v6.6h80.9v-6.6c0-7.5,2.8-14.3,7.4-19.5H44.1z M24.6,59.7v8.7h80.9v-8.7H24.6z M24.6,59.7
				v8.7h80.9v-8.7H24.6z M44.1,23.5c-10.8,0-19.5,8.8-19.5,19.5v6.6h80.9v-6.6c0-7.5,2.8-14.3,7.4-19.5H44.1z M135,23.5
				c-10.8,0-19.5,8.8-19.5,19.5v6.6h39.1v-6.6C154.6,32.3,145.8,23.5,135,23.5z M115.5,59.7v8.7h39.1v-8.7H115.5z M115.5,78.4v58
				c0,2,1.7,3.7,3.7,3.7h31.6c2.1,0,3.8-1.7,3.8-3.8V78.4H115.5z M105.5,78.4H78.3v19.4h-18c-4.3,0-7.9-3.5-7.9-7.8V78.4H24.6v58
				c0,2,1.7,3.7,3.7,3.7H106c-0.3-1.2-0.5-2.4-0.5-3.7V78.4z M115.5,59.7v8.7h39.1v-8.7H115.5z M115.5,78.4v58c0,2,1.7,3.7,3.7,3.7
				h31.6c2.1,0,3.8-1.7,3.8-3.8V78.4H115.5z M105.5,78.4H78.3v19.4h-18c-4.3,0-7.9-3.5-7.9-7.8V78.4H24.6v58c0,2,1.7,3.7,3.7,3.7
				H106c-0.3-1.2-0.5-2.4-0.5-3.7V78.4z M135,23.5c-10.8,0-19.5,8.8-19.5,19.5v6.6h39.1v-6.6C154.6,32.3,145.8,23.5,135,23.5z
				 M44.1,23.5c-10.8,0-19.5,8.8-19.5,19.5v6.6h80.9v-6.6c0-7.5,2.8-14.3,7.4-19.5H44.1z M24.6,59.7v8.7h80.9v-8.7H24.6z M24.6,59.7
				v8.7h80.9v-8.7H24.6z M44.1,23.5c-10.8,0-19.5,8.8-19.5,19.5v6.6h80.9v-6.6c0-7.5,2.8-14.3,7.4-19.5H44.1z M135,23.5
				c-10.8,0-19.5,8.8-19.5,19.5v6.6h39.1v-6.6C154.6,32.3,145.8,23.5,135,23.5z M115.5,59.7v8.7h39.1v-8.7H115.5z M115.5,78.4v58
				c0,2,1.7,3.7,3.7,3.7h31.6c2.1,0,3.8-1.7,3.8-3.8V78.4H115.5z M105.5,78.4H78.3v19.4h-18c-4.3,0-7.9-3.5-7.9-7.8V78.4H24.6v58
				c0,2,1.7,3.7,3.7,3.7H106c-0.3-1.2-0.5-2.4-0.5-3.7V78.4z M115.5,59.7v8.7h39.1v-8.7H115.5z M135,23.5
				c-10.8,0-19.5,8.8-19.5,19.5v6.6h39.1v-6.6C154.6,32.3,145.8,23.5,135,23.5z M115.5,78.4v58c0,2,1.7,3.7,3.7,3.7h31.6
				c2.1,0,3.8-1.7,3.8-3.8V78.4H115.5z M105.5,78.4H78.3v19.4h-18c-4.3,0-7.9-3.5-7.9-7.8V78.4H24.6v58c0,2,1.7,3.7,3.7,3.7H106
				c-0.3-1.2-0.5-2.4-0.5-3.7V78.4z M44.1,23.5c-10.8,0-19.5,8.8-19.5,19.5v6.6h80.9v-6.6c0-7.5,2.8-14.3,7.4-19.5H44.1z M24.6,59.7
				v8.7h80.9v-8.7H24.6z M24.6,59.7v8.7h80.9v-8.7H24.6z M44.1,23.5c-10.8,0-19.5,8.8-19.5,19.5v6.6h80.9v-6.6
				c0-7.5,2.8-14.3,7.4-19.5H44.1z M115.5,78.4v58c0,2,1.7,3.7,3.7,3.7h31.6c2.1,0,3.8-1.7,3.8-3.8V78.4H115.5z M105.5,78.4H78.3
				v19.4h-18c-4.3,0-7.9-3.5-7.9-7.8V78.4H24.6v58c0,2,1.7,3.7,3.7,3.7H106c-0.3-1.2-0.5-2.4-0.5-3.7V78.4z M135,23.5
				c-10.8,0-19.5,8.8-19.5,19.5v6.6h39.1v-6.6C154.6,32.3,145.8,23.5,135,23.5z M115.5,59.7v8.7h39.1v-8.7H115.5z M115.5,136.4
				c0,2,1.7,3.7,3.7,3.7h31.6c2.1,0,3.8-1.7,3.8-3.8V78.4h-39.1V136.4z M115.5,68.4h39.1v-8.7h-39.1V68.4z M135,23.5
				c-10.8,0-19.5,8.8-19.5,19.5v6.6h39.1v-6.6C154.6,32.3,145.8,23.5,135,23.5z M24.6,43.1v6.6h80.9v-6.6c0-7.5,2.8-14.3,7.4-19.5
				H44.1C33.3,23.5,24.6,32.3,24.6,43.1z M105.5,78.4H78.3v19.4h-18c-4.3,0-7.9-3.5-7.9-7.8V78.4H24.6v58c0,2,1.7,3.7,3.7,3.7H106
				c-0.3-1.2-0.5-2.4-0.5-3.7V78.4z M105.5,59.7H24.6v8.7h80.9V59.7z M0,2.8v135.6c0,12.4,10,22.4,22.4,22.4h139.7L207.5,2.8H0z
				 M150.8,150.1H28.3c-7.6,0-13.8-6.2-13.8-13.8V43.1c0-16.3,13.3-29.6,29.6-29.6H135c16.3,0,29.6,13.3,29.6,29.6v93.2
				C164.6,143.9,158.4,150.1,150.8,150.1z M115.5,136.4c0,2,1.7,3.7,3.7,3.7h31.6c2.1,0,3.8-1.7,3.8-3.8V78.4h-39.1V136.4z
				 M115.5,68.4h39.1v-8.7h-39.1V68.4z M135,23.5c-10.8,0-19.5,8.8-19.5,19.5v6.6h39.1v-6.6C154.6,32.3,145.8,23.5,135,23.5z
				 M24.6,43.1v6.6h80.9v-6.6c0-7.5,2.8-14.3,7.4-19.5H44.1C33.3,23.5,24.6,32.3,24.6,43.1z M105.5,78.4H78.3v19.4h-18
				c-4.3,0-7.9-3.5-7.9-7.8V78.4H24.6v58c0,2,1.7,3.7,3.7,3.7H106c-0.3-1.2-0.5-2.4-0.5-3.7V78.4z M105.5,59.7H24.6v8.7h80.9V59.7z
				 M24.6,59.7v8.7h80.9v-8.7H24.6z M44.1,23.5c-10.8,0-19.5,8.8-19.5,19.5v6.6h80.9v-6.6c0-7.5,2.8-14.3,7.4-19.5H44.1z
				 M115.5,78.4v58c0,2,1.7,3.7,3.7,3.7h31.6c2.1,0,3.8-1.7,3.8-3.8V78.4H115.5z M105.5,78.4H78.3v19.4h-18c-4.3,0-7.9-3.5-7.9-7.8
				V78.4H24.6v58c0,2,1.7,3.7,3.7,3.7H106c-0.3-1.2-0.5-2.4-0.5-3.7V78.4z M135,23.5c-10.8,0-19.5,8.8-19.5,19.5v6.6h39.1v-6.6
				C154.6,32.3,145.8,23.5,135,23.5z M115.5,59.7v8.7h39.1v-8.7H115.5z M115.5,59.7v8.7h39.1v-8.7H115.5z M135,23.5
				c-10.8,0-19.5,8.8-19.5,19.5v6.6h39.1v-6.6C154.6,32.3,145.8,23.5,135,23.5z M115.5,78.4v58c0,2,1.7,3.7,3.7,3.7h31.6
				c2.1,0,3.8-1.7,3.8-3.8V78.4H115.5z M105.5,78.4H78.3v19.4h-18c-4.3,0-7.9-3.5-7.9-7.8V78.4H24.6v58c0,2,1.7,3.7,3.7,3.7H106
				c-0.3-1.2-0.5-2.4-0.5-3.7V78.4z M44.1,23.5c-10.8,0-19.5,8.8-19.5,19.5v6.6h80.9v-6.6c0-7.5,2.8-14.3,7.4-19.5H44.1z M24.6,59.7
				v8.7h80.9v-8.7H24.6z M24.6,59.7v8.7h80.9v-8.7H24.6z M44.1,23.5c-10.8,0-19.5,8.8-19.5,19.5v6.6h80.9v-6.6
				c0-7.5,2.8-14.3,7.4-19.5H44.1z M135,23.5c-10.8,0-19.5,8.8-19.5,19.5v6.6h39.1v-6.6C154.6,32.3,145.8,23.5,135,23.5z
				 M115.5,59.7v8.7h39.1v-8.7H115.5z M115.5,78.4v58c0,2,1.7,3.7,3.7,3.7h31.6c2.1,0,3.8-1.7,3.8-3.8V78.4H115.5z M105.5,78.4H78.3
				v19.4h-18c-4.3,0-7.9-3.5-7.9-7.8V78.4H24.6v58c0,2,1.7,3.7,3.7,3.7H106c-0.3-1.2-0.5-2.4-0.5-3.7V78.4z M115.5,78.4v58
				c0,2,1.7,3.7,3.7,3.7h31.6c2.1,0,3.8-1.7,3.8-3.8V78.4H115.5z M105.5,78.4H78.3v19.4h-18c-4.3,0-7.9-3.5-7.9-7.8V78.4H24.6v58
				c0,2,1.7,3.7,3.7,3.7H106c-0.3-1.2-0.5-2.4-0.5-3.7V78.4z M115.5,59.7v8.7h39.1v-8.7H115.5z M135,23.5
				c-10.8,0-19.5,8.8-19.5,19.5v6.6h39.1v-6.6C154.6,32.3,145.8,23.5,135,23.5z M44.1,23.5c-10.8,0-19.5,8.8-19.5,19.5v6.6h80.9
				v-6.6c0-7.5,2.8-14.3,7.4-19.5H44.1z M24.6,59.7v8.7h80.9v-8.7H24.6z M24.6,59.7v8.7h80.9v-8.7H24.6z M44.1,23.5
				c-10.8,0-19.5,8.8-19.5,19.5v6.6h80.9v-6.6c0-7.5,2.8-14.3,7.4-19.5H44.1z M135,23.5c-10.8,0-19.5,8.8-19.5,19.5v6.6h39.1v-6.6
				C154.6,32.3,145.8,23.5,135,23.5z M115.5,59.7v8.7h39.1v-8.7H115.5z M115.5,78.4v58c0,2,1.7,3.7,3.7,3.7h31.6
				c2.1,0,3.8-1.7,3.8-3.8V78.4H115.5z M105.5,78.4H78.3v19.4h-18c-4.3,0-7.9-3.5-7.9-7.8V78.4H24.6v58c0,2,1.7,3.7,3.7,3.7H106
				c-0.3-1.2-0.5-2.4-0.5-3.7V78.4z M115.5,59.7v8.7h39.1v-8.7H115.5z M115.5,78.4v58c0,2,1.7,3.7,3.7,3.7h31.6
				c2.1,0,3.8-1.7,3.8-3.8V78.4H115.5z M105.5,78.4H78.3v19.4h-18c-4.3,0-7.9-3.5-7.9-7.8V78.4H24.6v58c0,2,1.7,3.7,3.7,3.7H106
				c-0.3-1.2-0.5-2.4-0.5-3.7V78.4z M135,23.5c-10.8,0-19.5,8.8-19.5,19.5v6.6h39.1v-6.6C154.6,32.3,145.8,23.5,135,23.5z
				 M44.1,23.5c-10.8,0-19.5,8.8-19.5,19.5v6.6h80.9v-6.6c0-7.5,2.8-14.3,7.4-19.5H44.1z M24.6,59.7v8.7h80.9v-8.7H24.6z M24.6,59.7
				v8.7h80.9v-8.7H24.6z M44.1,23.5c-10.8,0-19.5,8.8-19.5,19.5v6.6h80.9v-6.6c0-7.5,2.8-14.3,7.4-19.5H44.1z M135,23.5
				c-10.8,0-19.5,8.8-19.5,19.5v6.6h39.1v-6.6C154.6,32.3,145.8,23.5,135,23.5z M115.5,59.7v8.7h39.1v-8.7H115.5z M115.5,78.4v58
				c0,2,1.7,3.7,3.7,3.7h31.6c2.1,0,3.8-1.7,3.8-3.8V78.4H115.5z M105.5,78.4H78.3v19.4h-18c-4.3,0-7.9-3.5-7.9-7.8V78.4H24.6v58
				c0,2,1.7,3.7,3.7,3.7H106c-0.3-1.2-0.5-2.4-0.5-3.7V78.4z M115.5,59.7v8.7h39.1v-8.7H115.5z M115.5,78.4v58c0,2,1.7,3.7,3.7,3.7
				h31.6c2.1,0,3.8-1.7,3.8-3.8V78.4H115.5z M105.5,78.4H78.3v19.4h-18c-4.3,0-7.9-3.5-7.9-7.8V78.4H24.6v58c0,2,1.7,3.7,3.7,3.7
				H106c-0.3-1.2-0.5-2.4-0.5-3.7V78.4z M135,23.5c-10.8,0-19.5,8.8-19.5,19.5v6.6h39.1v-6.6C154.6,32.3,145.8,23.5,135,23.5z
				 M44.1,23.5c-10.8,0-19.5,8.8-19.5,19.5v6.6h80.9v-6.6c0-7.5,2.8-14.3,7.4-19.5H44.1z M24.6,59.7v8.7h80.9v-8.7H24.6z M24.6,59.7
				v8.7h80.9v-8.7H24.6z M44.1,23.5c-10.8,0-19.5,8.8-19.5,19.5v6.6h80.9v-6.6c0-7.5,2.8-14.3,7.4-19.5H44.1z M135,23.5
				c-10.8,0-19.5,8.8-19.5,19.5v6.6h39.1v-6.6C154.6,32.3,145.8,23.5,135,23.5z M115.5,59.7v8.7h39.1v-8.7H115.5z M115.5,78.4v58
				c0,2,1.7,3.7,3.7,3.7h31.6c2.1,0,3.8-1.7,3.8-3.8V78.4H115.5z M105.5,78.4H78.3v19.4h-18c-4.3,0-7.9-3.5-7.9-7.8V78.4H24.6v58
				c0,2,1.7,3.7,3.7,3.7H106c-0.3-1.2-0.5-2.4-0.5-3.7V78.4z M24.6,59.7v8.7h80.9v-8.7H24.6z M115.5,59.7v8.7h39.1v-8.7H115.5z
				 M115.5,78.4v58c0,2,1.7,3.7,3.7,3.7h31.6c2.1,0,3.8-1.7,3.8-3.8V78.4H115.5z M105.5,78.4H78.3v19.4h-18c-4.3,0-7.9-3.5-7.9-7.8
				V78.4H24.6v58c0,2,1.7,3.7,3.7,3.7H106c-0.3-1.2-0.5-2.4-0.5-3.7V78.4z M135,23.5c-10.8,0-19.5,8.8-19.5,19.5v6.6h39.1v-6.6
				C154.6,32.3,145.8,23.5,135,23.5z M44.1,23.5c-10.8,0-19.5,8.8-19.5,19.5v6.6h80.9v-6.6c0-7.5,2.8-14.3,7.4-19.5H44.1z
				 M44.1,23.5c-10.8,0-19.5,8.8-19.5,19.5v6.6h80.9v-6.6c0-7.5,2.8-14.3,7.4-19.5H44.1z M135,23.5c-10.8,0-19.5,8.8-19.5,19.5v6.6
				h39.1v-6.6C154.6,32.3,145.8,23.5,135,23.5z M24.6,59.7v8.7h80.9v-8.7H24.6z M115.5,59.7v8.7h39.1v-8.7H115.5z M115.5,78.4v58
				c0,2,1.7,3.7,3.7,3.7h31.6c2.1,0,3.8-1.7,3.8-3.8V78.4H115.5z M105.5,78.4H78.3v19.4h-18c-4.3,0-7.9-3.5-7.9-7.8V78.4H24.6v58
				c0,2,1.7,3.7,3.7,3.7H106c-0.3-1.2-0.5-2.4-0.5-3.7V78.4z M44.1,23.5c-10.8,0-19.5,8.8-19.5,19.5v6.6h80.9v-6.6
				c0-7.5,2.8-14.3,7.4-19.5H44.1z M135,23.5c-10.8,0-19.5,8.8-19.5,19.5v6.6h39.1v-6.6C154.6,32.3,145.8,23.5,135,23.5z M24.6,59.7
				v8.7h80.9v-8.7H24.6z M115.5,59.7v8.7h39.1v-8.7H115.5z M115.5,78.4v58c0,2,1.7,3.7,3.7,3.7h31.6c2.1,0,3.8-1.7,3.8-3.8V78.4
				H115.5z M105.5,78.4H78.3v19.4h-18c-4.3,0-7.9-3.5-7.9-7.8V78.4H24.6v58c0,2,1.7,3.7,3.7,3.7H106c-0.3-1.2-0.5-2.4-0.5-3.7V78.4z
				"/>
			<path class="st0" d="M112.8,23.5c-4.6,5.2-7.4,12-7.4,19.5v6.6H24.6v-6.6c0-10.8,8.8-19.5,19.5-19.5H112.8z"/>
			<path class="st0" d="M154.6,43.1v6.6h-39.1v-6.6c0-10.8,8.8-19.5,19.5-19.5S154.6,32.3,154.6,43.1z"/>
			<rect x="24.6" y="59.7" class="st0" width="80.9" height="8.7"/>
			<path class="st0" d="M105.5,136.4c0,1.3,0.2,2.5,0.5,3.7H28.3c-2,0-3.7-1.7-3.7-3.7v-58h27.8V90c0,4.3,3.5,7.8,7.9,7.8h18V78.4
				h27.2V136.4z"/>
			<path class="st0" d="M154.6,78.4v57.9c0,2.1-1.7,3.8-3.8,3.8h-31.6c-2,0-3.7-1.7-3.7-3.7v-58H154.6z"/>
			<rect x="115.5" y="59.7" class="st0" width="39.1" height="8.7"/>
			<path d="M135,13.5H44.1c-16.3,0-29.6,13.3-29.6,29.6v93.3c0,7.6,6.2,13.8,13.8,13.8h122.5c7.6,0,13.8-6.2,13.8-13.8V43.1
				C164.6,26.7,151.3,13.5,135,13.5z M24.6,43.1c0-10.8,8.8-19.5,19.5-19.5h68.7c-4.6,5.2-7.4,12-7.4,19.5v6.6H24.6V43.1z
				 M24.6,59.7h80.9v8.7H24.6V59.7z M24.6,78.4h27.8V90c0,4.3,3.5,7.8,7.9,7.8h18V78.4h27.2v58c0,1.3,0.2,2.5,0.5,3.7H28.3
				c-2,0-3.7-1.7-3.7-3.7V78.4z M154.6,136.3c0,2.1-1.7,3.8-3.8,3.8h-31.6c-2,0-3.7-1.7-3.7-3.7v-58h39.1V136.3z M154.6,68.4h-39.1
				v-8.7h39.1V68.4z M154.6,49.6h-39.1v-6.6c0-10.8,8.8-19.5,19.5-19.5s19.5,8.8,19.5,19.5V49.6z"/>
		</g>
		<g>
			<path class="st0" d="M241.6,160.8h-48.5l45.4-158h48.5L241.6,160.8z"/>
			<path class="st0" d="M427.9,160.8h-63.3l-17.7-118l-32.7,118h-41.3l45.2-158h63.3l18.3,118l32.1-118h41.3L427.9,160.8z"/>
			<path class="st0" d="M548.6,160.8h-57.6l-8.1-158h49.3l-1.3,116.9L594.6,2.8h51.1L548.6,160.8z"/>
			<path class="st0" d="M767.3,32.8h-71.2l-9.6,33.4h67.9l-8.5,29.3H678l-10.3,35.8h73.8l-8.5,29.5H612.5l45.4-158h117.9L767.3,32.8
				z"/>
			<path class="st0" d="M911.6,160.8h-63.3l-17.7-118l-32.7,118h-41.3l45.2-158h63.3l18.3,118l32.1-118h41.3L911.6,160.8z"/>
			<path class="st0" d="M1107.6,33.2h-47.6l-36.7,127.6h-48.2l36.7-127.6h-48.2l8.7-30.4h143.9L1107.6,33.2z"/>
			<path class="st0" d="M1234.5,128.9c-17,21-39.1,35.2-75.8,35.2c-37.3,0-68.3-16.2-68.3-55.3c0-29.7,12.9-60.7,30.8-80.4
				c14.4-15.7,38.4-28.4,72.7-28.4c43.4,0,66.4,20.3,66.4,55.7C1260.2,83.9,1246.9,113.4,1234.5,128.9z M1189.3,29.3
				c-19.2,0-31.7,21.9-39.1,38.9c-6.8,15.5-11.1,31.5-11.1,43.9c0,12.7,7.9,22.7,22.7,22.7c20.7,0,34.3-26.4,41.7-47
				c4.4-12,7.4-24.7,7.4-35.8C1210.9,39.3,1204.8,29.3,1189.3,29.3z"/>
			<path class="st0" d="M1406.3,78c-8.1,3.9-16.6,5.2-26,6.8c17.9,2.6,25.8,9,25.8,27.5c0,5.9-2.2,29.3-2.2,36.5
				c0,4.8,0.2,8.3,0.9,12h-48.2c-0.2-4.4-0.2-5.7-0.2-10.3c0-10.1,3.5-27.1,3.5-37.6c0-9.8-4.4-14.6-17-14.6h-19l-18.1,62.5h-48
				l46.1-158h68.8c16.4,0,28.6,1.7,38,6.3c12.7,6.1,19.9,16.6,19.9,32.8C1430.3,59.7,1420.5,71.2,1406.3,78z M1362.4,31.2H1343
				l-11.4,39.3h24c14,0,27.7-7.6,27.7-23.2C1383.4,35.2,1373.5,31.2,1362.4,31.2z"/>
			<path class="st0" d="M1513.2,105.3l-15.7,55.5h-49.8l17.5-59.7l-26-98.3h47.8l11.1,68.2l48.5-68.2h50L1513.2,105.3z"/>
		</g>
	</g>
</g>
</svg>
